<svg xmlns="http://www.w3.org/2000/svg" viewBox="0 0 173 77.34"><g data-name="Layer 2"><g data-name="Layer 1"><path d="M57.55 77.34a2.49 2.49 0 0 1-2.49-2.49v-7.57H34.21a2.49 2.49 0 0 1 0-5h20.86V15H20.84a2.49 2.49 0 0 1 0-5h34.23V2.49A2.49 2.49 0 0 1 57.55 0h113A2.49 2.49 0 0 1 173 2.49v72.36a2.49 2.49 0 0 1-2.49 2.49z" fill="#0e9642"/><path d="M60 72.36h108V8.68l-52.42 43a2.49 2.49 0 0 1-3.16 0L60 8.48z" fill="#e5dcd2"/><path fill="#fff" d="M114.04 46.57l50.67-41.6H63.6l50.44 41.6z"/><path d="M2.49 40.8a2.49 2.49 0 0 1 0-5H39.9a2.49 2.49 0 1 1 0 5z" fill="#8abe4b"/></g></g></svg>