<svg xmlns="http://www.w3.org/2000/svg" viewBox="0 0 126.78 126.99"><defs><style>.cls-1{fill:#0e9642}.cls-2{fill:#99938b}</style></defs><g id="Layer_2" data-name="Layer 2"><g id="Layer_1-2" data-name="Layer 1"><path class="cls-1" d="M9.93 0A10 10 0 0 0 0 10.14V118l24.83-35h21.5v-5h-24L5 102.32v-92a4.94 4.94 0 0 1 4.89-5.1h103.9v42.3h5V0z"/><path class="cls-2" d="M26.18 31.67h66.55v4H26.18z"/><path fill="#8abe4b" d="M26.18 19.97h66.55v4H26.18z"/><path id="SVGCleanerId_0" data-name="SVGCleanerId 0" d="M122.17 60a4.55 4.55 0 0 1 4.61 4.61V127l-13.23-18.44H60.24a4.55 4.55 0 0 1-4.61-4.61V60h66.55z" fill="#f16051"/><path id="SVGCleanerId_0-2" data-name="SVGCleanerId 0" d="M122.17 60a4.55 4.55 0 0 1 4.61 4.61V127l-13.23-18.44H60.24a4.55 4.55 0 0 1-4.61-4.61V60h66.55z" fill="#e5dcd2"/><path class="cls-2" d="M26.48 43.37h3.81v4h-3.81zm12.43 0h3.81v4h-3.81zm12.43 0h3.81v4h-3.81zm12.43 0h3.81v4h-3.81zm12.4 0h3.81v4h-3.81zm12.43 0h3.81v4H88.6z"/><path class="cls-1" d="M101.78 75.94l-3.37 3.37 5.46 5.45-5.46 5.46 3.37 3.36 8.82-8.82-8.82-8.82zm-22.91 8.82l5.46-5.45-3.37-3.37-8.82 8.82 8.82 8.82 3.37-3.36-5.46-5.46zm17.77-13.48h-4.86L86.1 98.25h4.86l5.68-26.97z"/></g></g></svg>