<svg xmlns="http://www.w3.org/2000/svg" viewBox="0 0 225 50"><style>.st0{fill:#0e9842}.st2{fill:#99938b}</style><path class="st0" d="M20 40l10 10H10V30z"/><path d="M40 30L30 40h20V20zM10 20l10-10H0v20z" fill="#8cc04b"/><path class="st0" d="M30 10L20 0h20v20z"/><circle class="st2" cx="25" cy="25" r="5"/><path class="st2" d="M73.3 22.9L86 10h4.5l-14 14 14.4 16h-4.6L74.1 26.3l-.9.9V40H70V10h3.3v12.9zm36.9-9.7H98v8.9h11.8v3.1H98v11.7h12.2V40H94.7V10h15.5v3.2zm9.3-3.2v30h-3.3V10h3.3zm16 3.2V40h-3.3V13.2h-7.3V10h17.8v3.1h-7.2zM162 31.6h-12.7l-3.6 8.5H142l13.8-31.5L169.2 40h-3.7l-3.5-8.4zm-1.3-3.2l-5-12-5.1 12h10.1zM178.1 10c2 0 5 .1 7.3 1.7 1.7 1.2 3.3 3.5 3.3 6.7 0 4.6-3 8-7.5 8.3l9.5 13.4h-4L177.6 27h-.9v13h-3.3V10h4.7zm-1.5 13.9h2.1c4.1 0 6.6-2 6.6-5.5 0-1.7-.5-3.3-2.4-4.4-1.3-.8-2.9-.9-4.3-.9h-2v10.8zm16.9 1.1c0-9 6.9-15.5 15.6-15.5s15.6 6.6 15.6 15.5-6.9 15.5-15.6 15.5S193.5 34 193.5 25zm3.4 0c0 6.9 5.4 12.4 12.1 12.4 6.7 0 12.1-5.5 12.1-12.4s-5.4-12.4-12.1-12.4c-6.7.1-12.1 5.6-12.1 12.4z"/></svg>