<svg xmlns="http://www.w3.org/2000/svg" viewBox="0 0 151.15 116.71"><defs><style>.cls-1{fill:#0e9642}.cls-2{fill:#e5dcd2}</style></defs><g id="Layer_2" data-name="Layer 2"><g id="Layer_1-2" data-name="Layer 1"><path class="cls-1" d="M123 99.5a3.57 3.57 0 1 1 3.57 3.57A3.45 3.45 0 0 1 123 99.5z"/><path class="cls-1" d="M114 115.71a10.28 10.28 0 0 1-10.26-10.26V52A10.28 10.28 0 0 1 114 41.75h10.85v-28a8.58 8.58 0 0 0-8.57-8.57H13.76a8.58 8.58 0 0 0-8.57 8.57v66.39a8.58 8.58 0 0 0 8.57 8.57h69.93a2.1 2.1 0 1 1 0 4.19H67.15v18.62h17.6a2.1 2.1 0 1 1 0 4.19H45.32a2.1 2.1 0 1 1 0-4.19h17.6V92.9H13.76A12.78 12.78 0 0 1 1 80.14V13.76A12.78 12.78 0 0 1 13.76 1h102.51A12.78 12.78 0 0 1 129 13.76v28h10.85A10.28 10.28 0 0 1 150.15 52v40.34a2.08 2.08 0 0 1-2.06 2.1 2.12 2.12 0 0 1-2.1-2.1V52a6.08 6.08 0 0 0-6.07-6.07H114a6.08 6.08 0 0 0-6.07 6.07v53.43a6.08 6.08 0 0 0 6.07 6.07h25.92a2.1 2.1 0 1 1 0 4.19z"/><path class="cls-1" d="M139.91 116.71H114a11.28 11.28 0 0 1-11.26-11.26V52A11.28 11.28 0 0 1 114 40.75h9.85v-27a7.58 7.58 0 0 0-7.57-7.57H13.76a7.58 7.58 0 0 0-7.57 7.57v66.39a7.58 7.58 0 0 0 7.57 7.57h69.93a3.1 3.1 0 1 1 0 6.19H68.15v16.62h16.6a3.1 3.1 0 1 1 0 6.19H45.32a3.1 3.1 0 1 1 0-6.19h16.6V93.9H13.76A13.78 13.78 0 0 1 0 80.14V13.76A13.78 13.78 0 0 1 13.76 0h102.51A13.78 13.78 0 0 1 130 13.76v27h9.85A11.28 11.28 0 0 1 151.15 52v40.34a3.08 3.08 0 0 1-3.06 3.1 3.14 3.14 0 0 1-3.1-3.1V52a5.08 5.08 0 0 0-5.07-5.07H114a5.08 5.08 0 0 0-5.07 5.07v53.43a5.08 5.08 0 0 0 5.07 5.07h25.92a3.1 3.1 0 0 1 0 6.19zM114 42.75a9.28 9.28 0 0 0-9.27 9.25v53.43a9.28 9.28 0 0 0 9.26 9.26h25.92a1.1 1.1 0 0 0 0-2.19H114a7.08 7.08 0 0 1-7.07-7.07V52a7.08 7.08 0 0 1 7.07-7.06h25.92A7.08 7.08 0 0 1 147 52v40.34a1.12 1.12 0 0 0 1.1 1.1 1.08 1.08 0 0 0 1.06-1.1V52a9.28 9.28 0 0 0-9.26-9.26H128v-29A11.78 11.78 0 0 0 116.27 2H13.76A11.78 11.78 0 0 0 2 13.76v66.38A11.78 11.78 0 0 0 13.76 91.9h50.16v20.62h-18.6a1.1 1.1 0 1 0 0 2.19h39.43a1.1 1.1 0 1 0 0-2.19h-18.6V91.9h17.54a1.1 1.1 0 1 0 0-2.19H13.76a9.58 9.58 0 0 1-9.57-9.57V13.76a9.58 9.58 0 0 1 9.57-9.57h102.51a9.58 9.58 0 0 1 9.57 9.57v29z"/><rect class="cls-2" x="31.6" y="35.12" width="25.56" height="25.56" rx="2.72" ry="2.72"/><rect x="68.01" y="24.05" width="17.67" height="17.67" rx="1.88" ry="1.88" fill="#8abe4b"/><rect class="cls-2" x="118.81" y="60.6" width="17.67" height="17.67" rx="1.88" ry="1.88"/><rect x="68.01" y="54.07" width="17.67" height="17.67" rx="1.88" ry="1.88" fill="#99938b"/></g></g></svg>