<?xml version="1.0" encoding="UTF-8"?>
<svg width="29px" height="40px" viewBox="0 0 29 40" version="1.1" xmlns="http://www.w3.org/2000/svg" xmlns:xlink="http://www.w3.org/1999/xlink">
    <title>Amplus-icons</title>
<metadata id="license"
            xmlns:rdf="http://www.w3.org/1999/02/22-rdf-syntax-ns#"
            xmlns:dc="http://purl.org/dc/elements/1.1/"
            xmlns:cc="http://creativecommons.org/ns#">
    <rdf:RDF>
      <cc:Work rdf:about="">
        <dc:format>image/svg+xml</dc:format>
        <dc:type rdf:resource="http://purl.org/dc/dcmitype/StillImage" />
        <cc:license rdf:resource="http://creativecommons.org/licenses/by-nc-sa/3.0/" />
      </cc:Work>
      <cc:License rdf:about="http://creativecommons.org/licenses/by-nc-sa/3.0/">
        <cc:permits rdf:resource="http://creativecommons.org/ns#Reproduction" />
        <cc:permits rdf:resource="http://creativecommons.org/ns#Distribution" />
        <cc:requires rdf:resource="http://creativecommons.org/ns#Notice" />
        <cc:requires rdf:resource="http://creativecommons.org/ns#Attribution" />
        <cc:permits rdf:resource="http://creativecommons.org/ns#DerivativeWorks" />
        <cc:requires rdf:resource="http://creativecommons.org/ns#ShareAlike" />
      </cc:License>
    </rdf:RDF>
  </metadata>
    <desc>Created with Sketch.</desc>
    <g id="Page-1" stroke="none" stroke-width="1" fill="none" fill-rule="evenodd">
        <g id="About" transform="translate(-909.000000, -811.000000)" fill-rule="nonzero">
            <g id="placeholder-(1)-3" transform="translate(909.000000, 811.000000)">
                <g id="placeholder-(1)-2">
                    <g id="placeholder-(1)">
                        <path d="M14.0740741,9.375 C11.4867119,9.375 9.38271605,11.4772656 9.38271605,14.0625 C9.38271605,16.6600781 11.4829588,18.75 14.0740741,18.75 C16.7116337,18.75 18.7654321,16.6207031 18.7654321,14.0625 C18.7654321,11.4772656 16.6614362,9.375 14.0740741,9.375 Z" id="Path" fill="#9C2484"></path>
                        <path d="M14.0740741,0 C6.31316049,0 0,6.30796875 0,14.0625 C0,16.6820313 0.726144033,19.2386719 2.09946091,21.4565625 L13.2723992,39.4455469 C13.7356708,40.193125 14.8279753,40.1817188 15.2767819,39.4295313 L26.1644856,21.2665625 C27.4609424,19.095625 28.1481481,16.6042187 28.1481481,14.0625 C28.1481481,6.30796875 21.8349877,0 14.0740741,0 Z M14.0740741,21.109375 C10.1376337,21.109375 7.02139918,17.9078906 7.02139918,14.0625 C7.02139918,10.1852344 10.1936173,7.015625 14.0740741,7.015625 C17.9545309,7.015625 21.126749,10.1852344 21.126749,14.0625 C21.126749,17.8739844 18.0524239,21.109375 14.0740741,21.109375 Z" id="Shape" fill="#583D90"></path>
                    </g>
                </g>
            </g>
        </g>
    </g>
</svg>