<svg xmlns="http://www.w3.org/2000/svg" viewBox="0 0 173 77.34"><defs><style>.cls-1{fill:#0e9642;}.cls-2{fill:#e5dcd2;}.cls-3{fill:#fff;}.cls-4{fill:#8abe4b;}</style></defs><title>message</title><g id="Layer_2" data-name="Layer 2"><g id="Layer_1-2" data-name="Layer 1"><path class="cls-1" d="M57.55,77.34a2.49,2.49,0,0,1-2.49-2.49V67.28H34.21a2.49,2.49,0,0,1,0-5H55.07V15H20.84a2.49,2.49,0,0,1,0-5H55.07V2.49A2.49,2.49,0,0,1,57.55,0h113A2.49,2.49,0,0,1,173,2.49V74.85a2.49,2.49,0,0,1-2.49,2.49Z"/><path class="cls-2" d="M60,72.36H168V8.68l-52.42,43a2.49,2.49,0,0,1-3.16,0L60,8.48Z"/><polygon class="cls-3" points="114.04 46.57 164.71 4.97 63.6 4.97 114.04 46.57"/><path class="cls-4" d="M2.49,40.8a2.49,2.49,0,0,1,0-5H39.9a2.49,2.49,0,1,1,0,5Z"/></g></g></svg>