<svg xmlns="http://www.w3.org/2000/svg" viewBox="0 0 126.78 126.99"><defs><style>.cls-1{fill:#0e9642;}.cls-2{fill:#99938b;}.cls-3{fill:#8abe4b;}.cls-4{fill:#f16051;}.cls-5{fill:#e5dcd2;}</style></defs><title>Asset 2</title><g id="Layer_2" data-name="Layer 2"><g id="Layer_1-2" data-name="Layer 1"><path class="cls-1" d="M9.93,0A10,10,0,0,0,0,10.14V118L24.83,83h21.5V78h-24L5,102.32v-92a4.94,4.94,0,0,1,4.89-5.1h103.9v42.3h5V0Z"/><rect class="cls-2" x="26.18" y="31.67" width="66.55" height="4"/><rect class="cls-3" x="26.18" y="19.97" width="66.55" height="4"/><path id="SVGCleanerId_0" data-name="SVGCleanerId 0" class="cls-4" d="M122.17,60a4.55,4.55,0,0,1,4.61,4.61V127l-13.23-18.44H60.24a4.55,4.55,0,0,1-4.61-4.61V60h66.55Z"/><path id="SVGCleanerId_0-2" data-name="SVGCleanerId 0" class="cls-5" d="M122.17,60a4.55,4.55,0,0,1,4.61,4.61V127l-13.23-18.44H60.24a4.55,4.55,0,0,1-4.61-4.61V60h66.55Z"/><rect class="cls-2" x="26.48" y="43.37" width="3.81" height="4"/><rect class="cls-2" x="38.91" y="43.37" width="3.81" height="4"/><rect class="cls-2" x="51.34" y="43.37" width="3.81" height="4"/><rect class="cls-2" x="63.77" y="43.37" width="3.81" height="4"/><rect class="cls-2" x="76.17" y="43.37" width="3.81" height="4"/><rect class="cls-2" x="88.6" y="43.37" width="3.81" height="4"/><polygon class="cls-1" points="101.78 75.94 98.41 79.31 103.87 84.76 98.41 90.22 101.78 93.58 110.6 84.76 101.78 75.94 101.78 75.94"/><polygon class="cls-1" points="78.87 84.76 84.33 79.31 80.96 75.94 72.14 84.76 80.96 93.58 84.33 90.22 78.87 84.76 78.87 84.76"/><polygon class="cls-1" points="96.64 71.28 91.78 71.28 86.1 98.25 90.96 98.25 96.64 71.28 96.64 71.28"/></g></g></svg>