<svg xmlns="http://www.w3.org/2000/svg" viewBox="0 0 138.21 138"><defs><style>.cls-1{fill:#fff}.cls-3{fill:#8abe4b}</style></defs><g id="Layer_2" data-name="Layer 2"><g id="Layer_1-2" data-name="Layer 1"><path class="cls-1" d="M127 37.3a26.62 26.62 0 0 0 1.29-8.41 26.6 26.6 0 0 0-26.75-26.75 28.58 28.58 0 0 0-14.66 4.31A39.45 39.45 0 0 0 71.8 2.14H69a13.66 13.66 0 0 0-3 .23 39.18 39.18 0 0 0-34.3 26.31 29.77 29.77 0 0 0 .23 59.53h74.19a29.82 29.82 0 0 0 29.77-29.77A30.27 30.27 0 0 0 127 37.3z"/><path d="M128.31 118.38a9.54 9.54 0 0 0-9.49 7.55h-14.46V90.36h1.94a31.87 31.87 0 0 0 23.27-53.69 31.69 31.69 0 0 0 1.08-7.76A29.2 29.2 0 0 0 101.56 0a30.21 30.21 0 0 0-14.88 4.1C76.1-.63 67.72 0 65.75.23a41.33 41.33 0 0 0-35.58 26.31A32.22 32.22 0 0 0 0 58.43a31.84 31.84 0 0 0 31.91 31.9h4.31v35.58h-16.8A9.85 9.85 0 0 0 0 128.31 9.65 9.65 0 0 0 9.7 138a9.54 9.54 0 0 0 9.49-7.55h21.13V90.36h26.52v28.25a9.93 9.93 0 0 0-7.55 9.49 9.7 9.7 0 1 0 19.39 0 9.54 9.54 0 0 0-7.55-9.49V90.36H99.8v39.89h18.76a9.93 9.93 0 0 0 9.49 7.55 9.65 9.65 0 0 0 9.7-9.7 9.43 9.43 0 0 0-9.44-9.72z" fill="#0e9642"/><path class="cls-1" d="M38.38 64.9a5.39 5.39 0 1 1 5.39-5.39 5.46 5.46 0 0 1-5.39 5.39zm-28.58 69a5.39 5.39 0 1 1 0-10.78 5.33 5.33 0 0 1 5.39 5.39 5.46 5.46 0 0 1-5.39 5.39z"/><path class="cls-3" d="M68.85 133.84a5.39 5.39 0 1 1 5.39-5.39 5.46 5.46 0 0 1-5.39 5.39z"/><path d="M99.83 86H71.17V45.93l7.55-8.64a8.71 8.71 0 0 0 4.74 1.29 9.7 9.7 0 1 0-9.7-9.7 9.46 9.46 0 0 0 1.94 5.82l-8.64 9.92v41.63H40.54V69a9.93 9.93 0 0 0 7.55-9.49 9.7 9.7 0 1 0-19.39 0A9.54 9.54 0 0 0 36.26 69v17.25H32a27.71 27.71 0 0 1-.23-55.43h1.51l.43-1.51a37.51 37.51 0 0 1 32.56-25 39.65 39.65 0 0 1 19.84 4.1l1.08.65 1.08-.65a25.13 25.13 0 0 1 13.57-4.1 24.5 24.5 0 0 1 23.26 32.33l-.43 1.29.86.86a27 27 0 0 1 8.19 19.62A27.51 27.51 0 0 1 106.12 86h-1.94V68.78a9.93 9.93 0 0 0 7.55-9.49 9.7 9.7 0 0 0-19.39 0 9.54 9.54 0 0 0 7.55 9.49V86h-.07z" fill="#e5dcd2"/><path class="cls-3" d="M77.84 28.89a5.39 5.39 0 1 1 5.39 5.39 5.48 5.48 0 0 1-5.39-5.39z"/><path d="M96.6 59.3a5.39 5.39 0 1 1 5.4 5.39 5.21 5.21 0 0 1-5.4-5.39zm26 69a5.39 5.39 0 1 1 5.39 5.39 5.21 5.21 0 0 1-5.39-5.39z" fill="#99938b"/></g></g></svg>