<svg xmlns="http://www.w3.org/2000/svg" viewBox="0 0 138.21 138">
  <metadata id="license"
            xmlns:rdf="http://www.w3.org/1999/02/22-rdf-syntax-ns#"
            xmlns:dc="http://purl.org/dc/elements/1.1/"
            xmlns:cc="http://creativecommons.org/ns#">
    <rdf:RDF>
      <cc:Work rdf:about="">
        <dc:format>image/svg+xml</dc:format>
        <dc:type rdf:resource="http://purl.org/dc/dcmitype/StillImage" />
        <cc:license rdf:resource="http://creativecommons.org/ns#Reproduction" />
      </cc:Work>
      <cc:License rdf:about="https://creativecommons.org/licenses/by-nc-nd/4.0/">
        <cc:permits rdf:resource="http://creativecommons.org/ns#Sharing" />
        <cc:requires rdf:resource="http://creativecommons.org/ns#Attribution" />
        <cc:prohibits rdf:resource="http://creativecommons.org/ns#DerivativeWorks" />
        <cc:prohibits rdf:resource="http://creativecommons.org/ns#CommercialUse" />
      </cc:License>
    </rdf:RDF>
  </metadata>
  <defs>
    <style>.cls-1{fill:#fff;}.cls-2{fill:#0e9642;}.cls-3{fill:#8abe4b;}.cls-4{fill:#e5dcd2;}.cls-5{fill:#99938b;}</style>
  </defs>
  <title>Asset 1</title>
  <g id="Layer_2" data-name="Layer 2">
    <g id="Layer_1-2" data-name="Layer 1">
      <path class="cls-1" d="M127,37.3a26.62,26.62,0,0,0,1.29-8.41A26.6,26.6,0,0,0,101.54,2.14,28.58,28.58,0,0,0,86.88,6.45,39.45,39.45,0,0,0,71.8,2.14H69a13.66,13.66,0,0,0-3,.23A39.18,39.18,0,0,0,31.7,28.68a29.77,29.77,0,0,0,.23,59.53h74.19a29.82,29.82,0,0,0,29.77-29.77A30.27,30.27,0,0,0,127,37.3Z"/>
      <path class="cls-2" d="M128.31,118.38a9.54,9.54,0,0,0-9.49,7.55H104.36V90.36h1.94a31.87,31.87,0,0,0,23.27-53.69,31.69,31.69,0,0,0,1.08-7.76A29.2,29.2,0,0,0,101.56,0,30.21,30.21,0,0,0,86.68,4.1C76.1-.63,67.72,0,65.75.23A41.33,41.33,0,0,0,30.17,26.54,32.22,32.22,0,0,0,0,58.43,31.84,31.84,0,0,0,31.91,90.33h4.31v35.58H19.42A9.85,9.85,0,0,0,0,128.31,9.65,9.65,0,0,0,9.7,138a9.54,9.54,0,0,0,9.49-7.55H40.32V90.36H66.84v28.25a9.93,9.93,0,0,0-7.55,9.49,9.7,9.7,0,1,0,19.39,0,9.54,9.54,0,0,0-7.55-9.49V90.36H99.8v39.89h18.76a9.93,9.93,0,0,0,9.49,7.55,9.65,9.65,0,0,0,9.7-9.7A9.43,9.43,0,0,0,128.31,118.38Z"/>
      <path class="cls-1" d="M38.38,64.9a5.39,5.39,0,1,1,5.39-5.39A5.46,5.46,0,0,1,38.38,64.9Z"/>
      <path class="cls-1" d="M9.8,133.9a5.39,5.39,0,1,1,0-10.78,5.33,5.33,0,0,1,5.39,5.39A5.46,5.46,0,0,1,9.8,133.9Z"/>
      <path class="cls-3" d="M68.85,133.84a5.39,5.39,0,1,1,5.39-5.39A5.46,5.46,0,0,1,68.85,133.84Z"/>
      <path class="cls-4" d="M99.83,86H71.17V45.93l7.55-8.64a8.71,8.71,0,0,0,4.74,1.29,9.7,9.7,0,1,0-9.7-9.7A9.46,9.46,0,0,0,75.7,34.7l-8.64,9.92V86.25H40.54V69a9.93,9.93,0,0,0,7.55-9.49,9.7,9.7,0,1,0-19.39,0A9.54,9.54,0,0,0,36.26,69V86.25H32a27.71,27.71,0,0,1-.23-55.43h1.51l.43-1.51a37.51,37.51,0,0,1,32.56-25,39.65,39.65,0,0,1,19.84,4.1l1.08.65,1.08-.65a25.13,25.13,0,0,1,13.57-4.1A24.5,24.5,0,0,1,125.1,36.64l-.43,1.29.86.86a27,27,0,0,1,8.19,19.62A27.51,27.51,0,0,1,106.12,86h-1.94V68.78a9.93,9.93,0,0,0,7.55-9.49,9.7,9.7,0,0,0-19.39,0,9.54,9.54,0,0,0,7.55,9.49V86h-.07Z"/>
      <path class="cls-3" d="M77.84,28.89a5.39,5.39,0,1,1,5.39,5.39A5.48,5.48,0,0,1,77.84,28.89Z"/>
      <path class="cls-5" d="M96.6,59.3A5.39,5.39,0,1,1,102,64.69,5.21,5.21,0,0,1,96.6,59.3Z"/>
      <path class="cls-5" d="M122.6,128.3a5.39,5.39,0,1,1,5.39,5.39A5.21,5.21,0,0,1,122.6,128.3Z"/>
    </g>
  </g>
</svg>