<svg xmlns="http://www.w3.org/2000/svg" id="Layer_1" data-name="Layer 1" width="588.12" height="518.77"><defs id="defs4179"><style id="style4181">.cls-1{fill:none}.cls-4,.cls-5{fill:#8abe4b}.cls-4,.cls-6{opacity:.2}.cls-5{opacity:.4}.cls-6,.cls-7{fill:#0e9642}.cls-7{opacity:.3}</style><clipPath id="clip-path"><path class="cls-1" id="rect4184" fill="none" d="M0 0h634v568H0z"/></clipPath></defs><g id="g4188" clip-path="url(#clip-path)" transform="translate(-12.94 -49.23)"><g id="g4190" opacity=".83"><path class="cls-4" id="polyline4192" opacity=".2" fill="#8abe4b" d="M88.76 133.71l-.39 571.37h293.61l-.2-571.09-.5-.28H88.87"/><path class="cls-1" id="polyline4194" fill="none" d="M88.76 133.71l-.39 571.37h293.61l-.2-571.09-.5-.28H88.87"/><path class="cls-4" id="polygon4196" opacity=".2" fill="#8abe4b" d="M380.78 133.71L234.52 49.23l-124.65 72-21.5 12.48z"/><path class="cls-5" id="polygon4198" opacity=".4" fill="#8abe4b" d="M381.38 133.71L235.12 49.23l-124.65 72-21.5 12.48z"/><path class="cls-6" id="polygon4200" opacity=".2" fill="#0e9642" d="M159.38 721.32l-.36-544.01-.4.22.5 163.75-.11-.07-.49-164.35L14.65 259.1l-1.44-.83-.27.15v544.21z"/><path class="cls-6" id="polygon4202" opacity=".2" fill="#0e9642" d="M600.53 174.43l-.36.21L455.08 91.7l-.51 168.09.05-.02-.26 476.25 146.44 83.14V174.58l-.27-.15z"/><path class="cls-7" id="polygon4204" opacity=".3" fill="#0e9642" d="M455.55 91.62l145.51 83.18-146.01 84.92z"/><path id="polygon4206" fill="#333" d="M527.08 309.26v.62l1.06-.62z"/><path class="cls-7" id="polygon4208" opacity=".3" fill="#0e9642" d="M158.45 176.86L12.94 260.04l146.01 84.91z"/><path d="M343.39 197.15c-20.21-11.81-53.29-11.81-73.51 0-10.81 6.32-15.84 14.73-15.08 22.95v581.77h103.67V220.1c.76-8.22-4.26-16.63-15.08-22.95z" id="path4210" opacity=".2" fill="#979189"/><g id="g4212" opacity=".4"><path d="M344 197.46c-20.21-11.81-53.29-11.81-73.51 0-20.22 11.81-20.21 30.92 0 42.46s53.29 11.54 73.51 0c20.22-11.54 20.18-30.65 0-42.46z" id="path4214" fill="#979189"/></g><path class="cls-4" id="polygon4216" opacity=".2" fill="#8abe4b" d="M527.08 299.91H234.67l.19 454.6.51.28h292.52l.38-453.93-1.2-.34z"/><path class="cls-5" id="polygon4218" opacity=".4" fill="#8abe4b" d="M381.4 384.83l145.67-84.31.01-.61H234.67z"/></g></g></svg>