<svg xmlns:dc="http://purl.org/dc/elements/1.1/" xmlns:cc="http://creativecommons.org/ns#" xmlns:rdf="http://www.w3.org/1999/02/22-rdf-syntax-ns#" xmlns:svg="http://www.w3.org/2000/svg" xmlns="http://www.w3.org/2000/svg" data-name="Layer 1" viewBox="0 0 588.1 518.8" version="1.1" width="588.1" height="518.8">
  <title>Isometic Keitaro Inc. Symbol</title>
  <desc>Isometric version of the Keitaro Inc. logo symbol</desc>
  <style>
    .s0{
    fill:none;
    }
    .s1{
    fill:#8abe4b;
    opacity:0.2;
    }
    .s2{
    fill:#8abe4b;
    opacity:0.4;
    }
    .s3{
    fill:#0e9642;
    opacity:0.2;
    }
    .s4{
    fill:#0e9642;
    opacity:0.3;
    }
  </style>
  <metadata xmlns:rdf="http://www.w3.org/1999/02/22-rdf-syntax-ns#" xmlns:dc="http://purl.org/dc/elements/1.1/" xmlns:cc="http://creativecommons.org/ns#">
    <rdf:RDF>
      <cc:Work rdf:about="">
        <dc:format>
          image/svg+xml
        </dc:format>
        <dc:type rdf:resource="http://purl.org/dc/dcmitype/StillImage"/>
        <cc:license rdf:resource="http://creativecommons.org/ns#Reproduction"/>
      </cc:Work>
      <cc:License rdf:about="https://creativecommons.org/licenses/by-nc-nd/4.0/">
        <cc:permits rdf:resource="http://creativecommons.org/ns#Sharing"/>
        <cc:requires rdf:resource="http://creativecommons.org/ns#Attribution"/>
        <cc:prohibits rdf:resource="http://creativecommons.org/ns#DerivativeWorks"/>
        <cc:prohibits rdf:resource="http://creativecommons.org/ns#CommercialUse"/>
      </cc:License>
    </rdf:RDF>
  </metadata>
  <defs>
    <style>
      .cls-1{fill:none;}.cls-2{clip-path:url(#clip-path);}.cls-3{opacity:0.83;}.cls-4,.cls-5{fill:#8abe4b;}.cls-4,.cls-6,.cls-9{opacity:0.2;}.cls-10,.cls-5{opacity:0.4;}.cls-6,.cls-7{fill:#0e9642;}.cls-7{opacity:0.3;}.cls-8{fill:#333;}.cls-11,.cls-9{fill:#979189;}
    </style>
    <clipPath>
      <rect class="cls-1" width="634" height="568" x="0" y="0" fill="none"/>
    </clipPath>
  </defs>
  <title>
    1
  </title>
  <g class="cls-2" clip-path="url(#clip-path)" transform="translate(-12.940002,-49.22999)">
    <g class="cls-3" opacity="0.8">
      <polyline class="cls-4" points="88.8 133.7 88.4 705.1 382 705.1 381.8 134 381.3 133.7 88.9 133.7" class="s1"/>
      <polyline class="cls-1" points="88.8 133.7 88.4 705.1 382 705.1 381.8 134 381.3 133.7 88.9 133.7" fill="none"/>
      <polygon class="cls-4" points="380.8 133.7 380.8 133.7 234.5 49.2 109.9 121.2 88.4 133.7 " class="s1"/>
      <polygon class="cls-5" points="381.4 133.7 381.4 133.7 235.1 49.2 110.5 121.2 89 133.7 " class="s2"/>
      <polygon class="cls-6" points="159.4 721.3 159 177.3 159 177.3 158.6 177.5 159.1 341.3 159 341.2 158.5 176.9 14.7 259.1 13.2 258.3 12.9 258.4 12.9 802.6 " class="s3"/>
      <polygon class="cls-6" points="600.5 174.4 600.2 174.6 455.1 91.7 454.6 259.8 454.6 259.8 454.4 736 600.8 819.2 600.8 174.6 600.5 174.4 " class="s3"/>
      <polygon class="cls-7" points="455.6 91.6 601.1 174.8 455.1 259.7 455.1 259.7 " class="s4"/>
      <polygon class="cls-8" points="527.1 309.3 527.1 309.9 528.1 309.3 528.1 309.3 " fill="#333"/>
      <polygon class="cls-7" points="158.5 176.9 12.9 260 159 345 159 345 " class="s4"/>
      <path class="cls-9" d="m343.4 197.2c-20.2-11.8-53.3-11.8-73.5 0-10.8 6.3-15.8 14.7-15.1 23l0 581.8 103.7 0 0-581.8c0.8-8.2-4.3-16.6-15.1-22.9z" style="fill:#979189;opacity:0.2"/>
      <g class="cls-10" opacity="0.4">
        <path class="cls-11" d="m344 197.5c-20.2-11.8-53.3-11.8-73.5 0-20.2 11.8-20.2 30.9 0 42.5 20.2 11.5 53.3 11.5 73.5 0 20.2-11.5 20.2-30.6 0-42.5z" fill="#979189"/>
      </g>
      <polygon class="cls-4" points="527.1 299.9 234.7 299.9 234.9 754.5 235.4 754.8 527.9 754.8 528.3 300.9 527.1 300.5 527.1 300.5 " class="s1"/>
      <polygon class="cls-5" points="381.4 384.8 381.4 384.8 527.1 300.5 527.1 299.9 234.7 299.9 " class="s2"/>
    </g>
  </g>
</svg>