<?xml version="1.0" encoding="UTF-8" standalone="no"?>
<svg
   xmlns:dc="http://purl.org/dc/elements/1.1/"
   xmlns:cc="http://creativecommons.org/ns#"
   xmlns:rdf="http://www.w3.org/1999/02/22-rdf-syntax-ns#"
   xmlns:svg="http://www.w3.org/2000/svg"
   xmlns="http://www.w3.org/2000/svg"
   xmlns:sodipodi="http://sodipodi.sourceforge.net/DTD/sodipodi-0.dtd"
   xmlns:inkscape="http://www.inkscape.org/namespaces/inkscape"
   id="Layer_1"
   data-name="Layer 1"
   viewBox="0 0 588.12 518.77002"
   version="1.1"
   inkscape:version="0.91 r13725"
   sodipodi:docname="keitaro-hero-bg.svg"
   width="588.12"
   height="518.77002">
  <metadata
     id="metadata4222">
    <rdf:RDF>
      <cc:Work
         rdf:about="">
        <dc:format>image/svg+xml</dc:format>
        <dc:type
           rdf:resource="http://purl.org/dc/dcmitype/StillImage" />
        <dc:title>1</dc:title>
      </cc:Work>
    </rdf:RDF>
  </metadata>
  <sodipodi:namedview
     pagecolor="#ffffff"
     bordercolor="#666666"
     borderopacity="1"
     objecttolerance="10"
     gridtolerance="10"
     guidetolerance="10"
     inkscape:pageopacity="0"
     inkscape:pageshadow="2"
     inkscape:window-width="1920"
     inkscape:window-height="1029"
     id="namedview4220"
     showgrid="false"
     inkscape:zoom="1.1751916"
     inkscape:cx="385.95419"
     inkscape:cy="296.85861"
     inkscape:window-x="0"
     inkscape:window-y="0"
     inkscape:window-maximized="1"
     inkscape:current-layer="Layer_1" />
  <defs
     id="defs4179">
    <style
       id="style4181">.cls-1{fill:none;}.cls-2{clip-path:url(#clip-path);}.cls-3{opacity:0.83;}.cls-4,.cls-5{fill:#8abe4b;}.cls-4,.cls-6,.cls-9{opacity:0.2;}.cls-10,.cls-5{opacity:0.4;}.cls-6,.cls-7{fill:#0e9642;}.cls-7{opacity:0.3;}.cls-8{fill:#333;}.cls-11,.cls-9{fill:#979189;}</style>
    <clipPath
       id="clip-path">
      <rect
         class="cls-1"
         width="634"
         height="568"
         id="rect4184"
         x="0"
         y="0"
         style="fill:none" />
    </clipPath>
  </defs>
  <title
     id="title4186">1</title>
  <g
     class="cls-2"
     id="g4188"
     clip-path="url(#clip-path)"
     transform="translate(-12.940002,-49.22999)">
    <g
       class="cls-3"
       id="g4190"
       style="opacity:0.82999998">
      <polyline
         class="cls-4"
         points="88.76 133.71 88.37 705.08 381.98 705.08 381.78 133.99 381.28 133.71 88.87 133.71"
         id="polyline4192"
         style="opacity:0.2;fill:#8abe4b" />
      <polyline
         class="cls-1"
         points="88.76 133.71 88.37 705.08 381.98 705.08 381.78 133.99 381.28 133.71 88.87 133.71"
         id="polyline4194"
         style="fill:none" />
      <polygon
         class="cls-4"
         points="380.78,133.71 380.78,133.71 234.52,49.23 109.87,121.23 88.37,133.71 "
         id="polygon4196"
         style="opacity:0.2;fill:#8abe4b" />
      <polygon
         class="cls-5"
         points="381.38,133.71 381.38,133.71 235.12,49.23 110.47,121.23 88.97,133.71 "
         id="polygon4198"
         style="opacity:0.4;fill:#8abe4b" />
      <polygon
         class="cls-6"
         points="159.38,721.32 159.02,177.31 159.02,177.31 158.62,177.53 159.12,341.28 159.01,341.21 158.52,176.86 14.65,259.1 13.21,258.27 12.94,258.42 12.94,802.63 "
         id="polygon4200"
         style="opacity:0.2;fill:#0e9642" />
      <polygon
         class="cls-6"
         points="600.53,174.43 600.17,174.64 455.08,91.7 454.57,259.79 454.62,259.77 454.36,736.02 600.8,819.16 600.8,174.58 600.53,174.43 "
         id="polygon4202"
         style="opacity:0.2;fill:#0e9642" />
      <polygon
         class="cls-7"
         points="455.55,91.62 601.06,174.8 455.05,259.72 455.05,259.72 "
         id="polygon4204"
         style="opacity:0.3;fill:#0e9642" />
      <polygon
         class="cls-8"
         points="527.08,309.26 527.08,309.88 528.14,309.26 528.14,309.26 "
         id="polygon4206"
         style="fill:#333333" />
      <polygon
         class="cls-7"
         points="158.45,176.86 12.94,260.04 158.95,344.95 158.95,344.95 "
         id="polygon4208"
         style="opacity:0.3;fill:#0e9642" />
      <path
         class="cls-9"
         d="m 343.39,197.15 c -20.21,-11.81 -53.29,-11.81 -73.51,0 -10.81,6.32 -15.84,14.73 -15.08,22.95 l 0,581.77 103.67,0 0,-581.77 c 0.76,-8.22 -4.26,-16.63 -15.08,-22.95 z"
         id="path4210"
         inkscape:connector-curvature="0"
         style="opacity:0.2;fill:#979189" />
      <g
         class="cls-10"
         id="g4212"
         style="opacity:0.4">
        <path
           class="cls-11"
           d="m 344,197.46 c -20.21,-11.81 -53.29,-11.81 -73.51,0 -20.22,11.81 -20.21,30.92 0,42.46 20.21,11.54 53.29,11.54 73.51,0 20.22,-11.54 20.18,-30.65 0,-42.46 z"
           id="path4214"
           inkscape:connector-curvature="0"
           style="fill:#979189" />
      </g>
      <polygon
         class="cls-4"
         points="527.08,299.91 234.67,299.91 234.86,754.51 235.37,754.79 527.89,754.79 528.27,300.86 527.07,300.52 527.07,300.52 "
         id="polygon4216"
         style="opacity:0.2;fill:#8abe4b" />
      <polygon
         class="cls-5"
         points="381.4,384.83 381.4,384.83 527.07,300.52 527.08,299.91 234.67,299.91 "
         id="polygon4218"
         style="opacity:0.4;fill:#8abe4b" />
    </g>
  </g>
</svg>
